<svg xmlns="http://www.w3.org/2000/svg" version="1.1" xmlns:xlink="http://www.w3.org/1999/xlink" xmlns:svgjs="http://svgjs.dev/svgjs" width="1500" height="1500" viewBox="0 0 1500 1500"><rect width="1500" height="1500" fill="#ffffff"></rect><g transform="matrix(0.6666666666666666,0,0,0.6666666666666666,249.78425655976667,249.78425655976673)"><svg viewBox="0 0 343 343" data-background-color="#ffffff" preserveAspectRatio="xMidYMid meet" height="1500" width="1500" xmlns="http://www.w3.org/2000/svg" xmlns:xlink="http://www.w3.org/1999/xlink"><g id="tight-bounds" transform="matrix(1,0,0,1,0.0740000000000407,0.07400000000001228)"><svg viewBox="0 0 342.85155851775386 342.85155851775386" height="342.85155851775386" width="342.85155851775386"><g><svg></svg></g><g><svg viewBox="0 0 342.85155851775386 342.85155851775386" height="342.85155851775386" width="342.85155851775386"><g><path d="M0 171.426c0-94.676 76.75-171.426 171.426-171.426 94.676 0 171.426 76.75 171.426 171.426 0 94.676-76.75 171.426-171.426 171.426-94.676 0-171.426-76.75-171.426-171.426zM171.426 338.108c92.056 0 166.683-74.626 166.682-166.682 0-92.056-74.626-166.683-166.682-166.683-92.056 0-166.683 74.626-166.683 166.683 0 92.056 74.626 166.683 166.683 166.682z" data-fill-palette-color="tertiary" fill="#e65a41" stroke="transparent"></path><ellipse rx="164.56874808852186" ry="164.56874808852186" cx="171.42577925887693" cy="171.42577925887693" fill="#e65a41" stroke="transparent" stroke-width="0" fill-opacity="1" data-fill-palette-color="tertiary"></ellipse></g><g transform="matrix(1,0,0,1,64.84655864529837,76.08399172171823)"><svg viewBox="0 0 213.1584412271571 190.6835750743174" height="190.6835750743174" width="213.1584412271571"><g><svg viewBox="0 0 213.1584412271571 190.6835750743174" height="190.6835750743174" width="213.1584412271571"><g transform="matrix(1,0,0,1,0,114.93030613189876)"><svg viewBox="0 0 213.1584412271571 75.75326894241863" height="75.75326894241863" width="213.1584412271571"><g id="textblocktransform"><svg viewBox="0 0 213.1584412271571 75.75326894241863" height="75.75326894241863" width="213.1584412271571" id="textblock"><g><svg viewBox="0 0 213.1584412271571 52.5965232337389" height="52.5965232337389" width="213.1584412271571"><g transform="matrix(1,0,0,1,0,0)"><svg width="213.1584412271571" viewBox="3.78 -32.64 133.27 32.88" height="52.5965232337389" data-palette-color="#ffffff"><path d="M5.52-28.17Q3.78-28.17 3.78-29.13L3.78-29.13 3.78-31.69Q3.78-32.64 5.52-32.64L5.52-32.64 6.03-32.64Q7.79-32.64 7.79-31.69L7.79-31.69 7.79-29.13Q7.79-28.17 6.03-28.17L6.03-28.17 5.52-28.17ZM5.69 0.07Q3.96 0.07 3.96-0.88L3.96-0.88 3.96-21.83Q3.96-22.78 5.69-22.78L5.69-22.78 5.86-22.78Q7.62-22.78 7.62-21.83L7.62-21.83 7.62-0.88Q7.62 0.07 5.86 0.07L5.86 0.07 5.69 0.07ZM16.16 0.24Q14.45 0.24 13.1-0.05 11.74-0.34 11.74-1.12L11.74-1.12Q11.74-1.29 11.86-1.9 11.98-2.51 12.19-3.03 12.4-3.54 12.72-3.54L12.72-3.54Q12.77-3.54 13.25-3.44L13.25-3.44Q13.89-3.3 14.37-3.21 14.84-3.13 15.45-3.13L15.45-3.13Q18.67-3.13 20.1-4.39 21.53-5.66 21.53-8.47L21.53-8.47 21.53-29.52Q21.53-30.49 23.26-30.49L23.26-30.49 23.61-30.49Q25.36-30.49 25.36-29.52L25.36-29.52 25.36-8.91Q25.36-4.59 23.15-2.17 20.94 0.24 16.16 0.24L16.16 0.24ZM41.4 0.24Q36.49 0.24 33.92-2.7 31.34-5.64 31.34-11.25L31.34-11.25Q31.34-16.87 33.95-19.91 36.57-22.95 41.4-22.95L41.4-22.95Q46.19-22.95 48.73-19.93 51.26-16.92 51.26-11.25L51.26-11.25Q51.26-5.62 48.76-2.69 46.26 0.24 41.4 0.24L41.4 0.24ZM41.28-2.88Q44.45-2.88 45.97-4.94 47.48-7.01 47.48-11.33L47.48-11.33Q47.48-15.67 45.97-17.75 44.45-19.82 41.28-19.82L41.28-19.82Q38.13-19.82 36.64-17.76 35.15-15.7 35.15-11.33L35.15-11.33Q35.15-6.98 36.63-4.93 38.11-2.88 41.28-2.88L41.28-2.88ZM67.6 0.24Q63.79 0.24 60.69-3L60.69-3Q60.49-1.66 59.98-0.44L59.98-0.44Q59.88-0.15 59.6-0.04 59.32 0.07 58.83 0.07L58.83 0.07 58.66 0.07Q57.98 0.07 57.67-0.16 57.37-0.39 57.37-0.88L57.37-0.88 57.37-31.69Q57.37-32.64 59.07-32.64L59.07-32.64 59.27-32.64Q60.98-32.64 60.98-31.69L60.98-31.69 60.98-20.75Q62.39-21.83 63.86-22.39 65.32-22.95 67.2-22.95L67.2-22.95Q69.79-22.95 71.79-21.61 73.8-20.26 74.91-17.65 76.02-15.04 76.02-11.38L76.02-11.38Q76.02-8.01 74.99-5.36 73.97-2.71 72.06-1.23 70.16 0.24 67.6 0.24L67.6 0.24ZM66.86-2.91Q69.43-2.91 70.81-5.19 72.18-7.47 72.18-11.67L72.18-11.67Q72.18-15.58 70.72-17.63 69.26-19.68 66.37-19.75L66.37-19.75Q64.93-19.75 63.54-19.26 62.15-18.77 60.98-17.8L60.98-17.8 60.98-5.91Q62.32-4.47 63.86-3.69 65.4-2.91 66.86-2.91L66.86-2.91ZM83.88 0Q83.19 0 82.88-0.32 82.56-0.63 82.56-1.29L82.56-1.29 82.56-29.08Q82.56-29.76 82.88-30.07 83.19-30.37 83.88-30.37L83.88-30.37 91.64-30.37Q94.81-30.37 96.99-29.42 99.16-28.47 100.26-26.73 101.36-25 101.36-22.71L101.36-22.71Q101.36-21.29 100.7-19.89 100.04-18.48 98.94-17.47 97.84-16.46 96.6-16.11L96.6-16.11 96.6-15.94Q96.6-16.11 98.28-15.3 99.97-14.48 101.32-12.88 102.68-11.28 102.68-8.74L102.68-8.74Q102.68 0 91.35 0L91.35 0 83.88 0ZM86.39-17.29L91.45-17.29Q93.15-17.29 94.52-17.96 95.89-18.63 96.66-19.79 97.43-20.95 97.43-22.36L97.43-22.36Q97.43-24.8 95.96-25.94 94.5-27.08 91.27-27.08L91.27-27.08 86.39-27.08 86.39-17.29ZM86.39-3.3L92.74-3.3Q95.6-3.3 97.16-4.8 98.72-6.3 98.72-8.91L98.72-8.91Q98.72-11.33 97.01-12.66 95.3-13.99 91.98-13.99L91.98-13.99 86.39-13.99 86.39-3.3ZM109.61-28.17Q107.87-28.17 107.87-29.13L107.87-29.13 107.87-31.69Q107.87-32.64 109.61-32.64L109.61-32.64 110.12-32.64Q111.88-32.64 111.88-31.69L111.88-31.69 111.88-29.13Q111.88-28.17 110.12-28.17L110.12-28.17 109.61-28.17ZM109.78 0.07Q108.04 0.07 108.04-0.88L108.04-0.88 108.04-21.83Q108.04-22.78 109.78-22.78L109.78-22.78 109.95-22.78Q111.71-22.78 111.71-21.83L111.71-21.83 111.71-0.88Q111.71 0.07 109.95 0.07L109.95 0.07 109.78 0.07ZM126.25 0.24Q123.72 0.24 121.81-1.23 119.91-2.71 118.87-5.35 117.83-7.98 117.83-11.33L117.83-11.33Q117.83-15.01 118.94-17.64 120.05-20.26 122.06-21.61 124.06-22.95 126.67-22.95L126.67-22.95Q128.55-22.95 130-22.39 131.45-21.83 132.87-20.75L132.87-20.75 132.87-31.69Q132.87-32.64 134.58-32.64L134.58-32.64 134.78-32.64Q136.51-32.64 136.51-31.69L136.51-31.69 136.51-6.42Q136.51-3.59 136.78-2.33 137.05-1.07 137.05-0.95L137.05-0.95Q137.05-0.42 136.23-0.18 135.41 0.05 134.7 0.05L134.7 0.05Q134.21 0.05 133.92-0.42 133.63-0.88 133.52-1.35 133.41-1.83 133.16-3L133.16-3Q130.06 0.24 126.25 0.24L126.25 0.24ZM127.01-2.91Q128.45-2.91 130-3.69 131.55-4.47 132.87-5.91L132.87-5.91 132.87-17.8Q130.53-19.75 127.52-19.75L127.52-19.75Q124.62-19.68 123.14-17.63 121.66-15.58 121.66-11.67L121.66-11.67Q121.66-7.47 123.04-5.19 124.42-2.91 127.01-2.91L127.01-2.91Z" opacity="1" transform="matrix(1,0,0,1,0,0)" fill="#ffffff" class="wordmark-text-0" data-fill-palette-color="quaternary" id="text-0"></path></svg></g></svg></g><g transform="matrix(1,0,0,1,40.713262274387006,65.01330005266705)"><svg viewBox="0 0 131.7319166783831 10.739968889751589" height="10.739968889751589" width="131.7319166783831"><g transform="matrix(1,0,0,1,0,0)"><svg width="131.7319166783831" viewBox="0.45 -37.1 604.3299999999999 48.95" height="10.739968889751589" data-palette-color="#ffffff"><path d="M6.25 0.2L6.65-1.95Q9.15-2.15 10.1-2.58 11.05-3 11.35-4.13 11.65-5.25 11.65-8.1L11.65-8.1 11.65-29.9Q7.4-29.75 5.88-29.43 4.35-29.1 3.8-27.98 3.25-26.85 2.8-23.6L2.8-23.6 0.45-23.4Q1.05-28.15 1.2-32.05L1.2-32.05 1.65-32.45 5.8-31.9 21.3-31.9 25.55-32.45 26-32.05Q26.15-27.95 26.75-23.6L26.75-23.6 24.4-23.4Q23.85-26.7 23.3-27.85 22.75-29 21.35-29.35 19.95-29.7 15.95-29.9L15.95-29.9Q15.65-26.9 15.4-19.3 15.15-11.7 15.15-5.6L15.15-5.6Q15.15-3.75 15.8-2.98 16.45-2.2 18-2.2L18-2.2Q19.5-2.2 20.75-2.35L20.75-2.35 20.9-2.15 20.45 0.15 18.8 0.1 13.1 0Q10.35 0 6.25 0.2L6.25 0.2ZM28.55-1.95Q30-2.1 30.57-2.7 31.15-3.3 31.15-4.7L31.15-4.7 31.15-31.3Q31.15-32.65 30.7-33.27 30.25-33.9 29.3-33.9L29.3-33.9 28.25-33.9 28.05-34.05 28.25-35.65Q29.95-35.85 32.1-36.27 34.25-36.7 35.65-37.1L35.65-37.1 35.95-36.45Q35.6-35.9 35.27-31.1 34.95-26.3 34.75-19.3L34.75-19.3Q40.45-23.2 42.25-23.2L42.25-23.2Q45.5-23.2 47.3-21.5 49.1-19.8 49.1-16.75L49.1-16.75Q49.1-15.75 48.75-12.15L48.75-12.15Q48.3-6.3 48.3-4.9L48.3-4.9Q48.3-3.45 48.7-2.78 49.1-2.1 50.05-2.1L50.05-2.1 51.8-2.2 51.9-2 51.5 0.15Q48.2 0 47.05 0L47.05 0Q45.05 0 41.9 0.6L41.9 0.6 42.1-1.45Q43.6-1.85 44.25-2.63 44.9-3.4 44.9-4.7L44.9-4.7 45.2-14.6Q45.2-17.1 44.12-18.45 43.05-19.8 41.05-19.8L41.05-19.8Q39.8-19.8 37.97-19 36.15-18.2 34.7-17.05L34.7-17.05Q34.55-11.45 34.55-4.9L34.55-4.9Q34.55-3.35 34.95-2.73 35.35-2.1 36.35-2.1L36.35-2.1 38.1-2.2 38.2-2 37.75 0.15Q34.3 0 33.2 0L33.2 0Q31.05 0 28.25 0.1L28.25 0.1 28.55-1.95ZM65.8 0.6Q62.7 0.6 60.3-0.78 57.9-2.15 56.6-4.67 55.3-7.2 55.3-10.45L55.3-10.45Q55.3-13.8 56.82-16.75 58.35-19.7 60.9-21.45 63.45-23.2 66.34-23.2L66.34-23.2Q70-23.2 71.9-21.35 73.8-19.5 73.8-15.95L73.8-15.95Q73.8-14.5 73.5-13.5L73.5-13.5 72.84-12.9 59.05-12.9Q59-8.05 60.97-5.43 62.95-2.8 66.5-2.8L66.5-2.8Q69.3-2.8 72.59-4.35L72.59-4.35 72.9-4.25 73.45-2.8Q71.65-1.5 69.47-0.45 67.3 0.6 65.8 0.6L65.8 0.6ZM59.25-14.75L68.3-15.2Q69.05-15.3 69.3-15.55 69.55-15.8 69.55-16.55L69.55-16.55Q69.55-18.55 68.47-19.6 67.4-20.65 65.4-20.65L65.4-20.65Q63.05-20.65 61.37-19.05 59.7-17.45 59.25-14.75L59.25-14.75ZM94.89 0.85Q94.19-1.55 92.02-8.58 89.84-15.6 88.99-18.3L88.99-18.3Q88.14-20.75 85.69-20.8L85.69-20.8 85.59-21 85.89-22.65 89.89-22.6Q91.79-22.6 93.52-22.75 95.24-22.9 95.74-22.95L95.74-22.95 95.84-22.7 95.54-21.15Q93.89-21.1 93.29-20.83 92.69-20.55 92.69-19.85L92.69-19.85Q92.69-18.9 94.44-12.68 96.19-6.45 96.84-4.25L96.84-4.25 97.04-4.25 99.99-11.65Q101.59-15.5 102.29-17.5L102.29-17.5Q101.74-19.2 100.97-20 100.19-20.8 98.74-20.8L98.74-20.8 98.64-21 98.94-22.65 102.94-22.6Q104.79-22.6 106.54-22.7 108.29-22.8 108.79-22.85L108.79-22.85 108.89-22.6 108.59-21.05Q106.89-21 106.32-20.75 105.74-20.5 105.74-19.85L105.74-19.85Q105.74-18.95 107.49-12.73 109.24-6.5 109.89-4.25L109.89-4.25 110.09-4.25Q112.29-9.9 112.99-11.5L112.99-11.5Q114.24-14.6 115.07-16.8 115.89-19 115.89-19.6L115.89-19.6Q115.89-20.3 115.42-20.58 114.94-20.85 113.84-20.85L113.84-20.85 111.99-20.85 111.79-21.15 112.04-22.7Q112.49-22.7 113.84-22.65 115.19-22.6 116.99-22.6L116.99-22.6 121.09-22.65 120.74-20.8Q119.74-20.7 119.14-19.98 118.54-19.25 117.64-17.05L117.64-17.05 110.64 0 107.94 0.85 103.44-13.9 103.14-13.9 97.64 0 94.89 0.85ZM131.74 0.6Q128.89 0.6 126.69-0.8 124.49-2.2 123.26-4.73 122.04-7.25 122.04-10.5L122.04-10.5Q122.04-14 123.56-16.93 125.09-19.85 127.74-21.53 130.39-23.2 133.64-23.2L133.64-23.2Q136.44-23.2 138.66-21.8 140.89-20.4 142.11-17.88 143.34-15.35 143.34-12.1L143.34-12.1Q143.34-8.6 141.81-5.68 140.29-2.75 137.64-1.07 134.99 0.6 131.74 0.6L131.74 0.6ZM133.14-1.85Q135.94-1.85 137.59-4.13 139.24-6.4 139.24-10.3L139.24-10.3Q139.24-13.25 138.34-15.58 137.44-17.9 135.81-19.2 134.19-20.5 132.14-20.5L132.14-20.5Q129.34-20.5 127.69-18.2 126.04-15.9 126.04-11.95L126.04-11.95Q126.04-9 126.94-6.7 127.84-4.4 129.44-3.13 131.04-1.85 133.14-1.85L133.14-1.85ZM148.09-1.8Q149.59-1.95 150.09-2.78 150.59-3.6 150.59-5.95L150.59-5.95 150.59-16.95Q150.59-18.6 150.14-19.3 149.69-20 148.69-20L148.69-20Q148.29-20 148.01-19.95 147.74-19.9 147.64-19.85L147.64-19.85 147.39-20.2 147.54-21.75Q149.44-22.1 151.56-22.6 153.69-23.1 154.29-23.25L154.29-23.25 154.64-22.95Q154.54-22.5 154.34-20.88 154.14-19.25 154.19-17.8L154.19-17.8 154.39-17.65Q155.89-20 157.91-21.5 159.94-23 161.44-23L161.44-23Q162.14-23 162.51-22.93 162.89-22.85 162.99-22.8L162.99-22.8 163.14-22.6Q163.04-21.9 162.71-19.63 162.39-17.35 162.34-15.45L162.34-15.45 160.39-15.3Q160.39-17.35 160.11-18.03 159.84-18.7 159.04-18.7L159.04-18.7Q157.94-18.7 156.69-17.78 155.44-16.85 154.39-15.3L154.39-15.3Q154.34-13.85 154.19-10.5 154.04-7.15 153.99-5.1L153.99-5.1Q153.99-3.4 154.49-2.8 154.99-2.2 156.39-2.2L156.39-2.2Q157.04-2.2 157.69-2.25 158.34-2.3 158.59-2.3L158.59-2.3 158.64-2.1 158.19 0.1Q157.69 0.1 156.19 0.05 154.69 0 153.09 0L153.09 0Q151.24 0 149.74 0.08 148.24 0.15 147.84 0.2L147.84 0.2 148.09-1.8ZM165.63 0.6L165.83-1.45Q167.23-1.85 167.81-2.45 168.38-3.05 168.51-3.9 168.63-4.75 168.63-6.75L168.63-6.75 168.63-31.3Q168.63-32.85 168.28-33.4 167.93-33.95 166.83-33.95L166.83-33.95Q166.58-33.95 165.68-33.85L165.68-33.85 165.53-33.95 165.73-35.65Q169.93-36.25 173.13-37.1L173.13-37.1 173.43-36.45Q172.88-35.6 172.46-25.75 172.03-15.9 172.03-4.9L172.03-4.9Q172.03-3.4 172.43-2.75 172.83-2.1 173.78-2.1L173.78-2.1 175.53-2.2 175.63-2 175.23 0.15Q171.93 0 170.78 0L170.78 0Q169.08 0 165.63 0.6L165.63 0.6ZM198.98 0.6Q195.08 0.6 194.53-2.95L194.53-2.95 194.18-3.1Q188.98 0.45 187.93 0.45L187.93 0.45Q185.08 0.45 182.88-0.88 180.68-2.2 179.48-4.6 178.28-7 178.28-10.1L178.28-10.1Q178.28-13.65 179.96-16.65 181.63-19.65 184.51-21.43 187.38-23.2 190.73-23.2L190.73-23.2Q192.33-23.2 194.18-23L194.18-23 194.18-31.3Q194.18-34 192.33-34L192.33-34Q191.98-34 191.58-33.93 191.18-33.85 191.08-33.8L191.08-33.8 191.28-35.65Q193.43-35.95 195.73-36.45 198.03-36.95 198.68-37.1L198.68-37.1 198.98-36.45Q198.43-35.6 198.01-25.9 197.58-16.2 197.58-5.25L197.58-5.25Q197.58-4.15 198.13-3.55 198.68-2.95 199.63-2.95L199.63-2.95Q200.33-2.95 201.01-3.23 201.68-3.5 202.11-3.8 202.53-4.1 202.63-4.2L202.63-4.2 203.33-3.4Q203.18-3.15 202.58-2.33 201.98-1.5 201.01-0.6 200.03 0.3 198.98 0.6L198.98 0.6ZM188.73-2.8Q189.78-2.8 191.01-3.4 192.23-4 193.08-4.63 193.93-5.25 194.18-5.45L194.18-5.45 194.18-19.15Q194.03-19.25 193.43-19.53 192.83-19.8 191.76-20.05 190.68-20.3 189.33-20.3L189.33-20.3Q185.98-20.3 184.06-18.03 182.13-15.75 182.13-11.8L182.13-11.8Q182.13-9.3 183.01-7.25 183.88-5.2 185.41-4 186.93-2.8 188.73-2.8L188.73-2.8ZM206.88-20.75L206.33-20.85Q206.38-21.75 206.38-23.55L206.38-23.55Q206.38-26.35 206.23-28.73 206.08-31.1 206.03-31.75L206.03-31.75 209.53-32.45 209.88-32.05Q209.78-31.1 209.28-27.88 208.78-24.65 208.13-21.45L208.13-21.45 206.88-20.75ZM220.68 0.6Q219.08 0.6 217.75 0.38 216.43 0.15 215.68-0.1 214.93-0.35 214.73-0.45L214.73-0.45 214.58-0.8Q214.73-1.55 214.93-3.9 215.13-6.25 215.18-7.5L215.18-7.5 216.93-7.75Q216.93-4.45 218.03-3.1 219.13-1.75 221.78-1.75L221.78-1.75Q223.68-1.75 224.98-2.6 226.28-3.45 226.28-4.7L226.28-4.7Q226.28-5.95 225.1-6.98 223.93-8 220.48-9.85L220.48-9.85Q217.63-11.3 216.33-12.8 215.03-14.3 215.03-16.1L215.03-16.1Q215.03-18.1 216.23-19.73 217.43-21.35 219.53-22.28 221.63-23.2 224.23-23.2L224.23-23.2Q225.43-23.2 226.53-23.03 227.63-22.85 228.33-22.65 229.03-22.45 229.23-22.4L229.23-22.4 229.33-22.15Q229.23-21.65 228.88-19.88 228.53-18.1 228.38-16.05L228.38-16.05 226.53-15.9Q226.53-16.05 226.58-16.5 226.63-16.95 226.63-17.35L226.63-17.35Q226.63-19.15 225.65-19.98 224.68-20.8 222.53-20.8L222.53-20.8Q220.83-20.8 219.65-20 218.48-19.2 218.48-18.05L218.48-18.05Q218.48-16.85 219.5-15.8 220.53-14.75 222.83-13.55L222.83-13.55Q226.88-11.4 228.35-9.93 229.83-8.45 229.83-6.55L229.83-6.55Q229.83-4.65 228.58-3 227.33-1.35 225.2-0.38 223.08 0.6 220.68 0.6L220.68 0.6ZM251.22 0.85Q250.52-1.55 248.35-8.58 246.17-15.6 245.32-18.3L245.32-18.3Q244.47-20.75 242.02-20.8L242.02-20.8 241.92-21 242.22-22.65 246.22-22.6Q248.12-22.6 249.85-22.75 251.57-22.9 252.07-22.95L252.07-22.95 252.17-22.7 251.87-21.15Q250.22-21.1 249.62-20.83 249.02-20.55 249.02-19.85L249.02-19.85Q249.02-18.9 250.77-12.68 252.52-6.45 253.17-4.25L253.17-4.25 253.37-4.25 256.32-11.65Q257.92-15.5 258.62-17.5L258.62-17.5Q258.07-19.2 257.3-20 256.52-20.8 255.07-20.8L255.07-20.8 254.97-21 255.27-22.65 259.27-22.6Q261.12-22.6 262.87-22.7 264.62-22.8 265.12-22.85L265.12-22.85 265.22-22.6 264.92-21.05Q263.22-21 262.65-20.75 262.07-20.5 262.07-19.85L262.07-19.85Q262.07-18.95 263.82-12.73 265.57-6.5 266.22-4.25L266.22-4.25 266.42-4.25Q268.62-9.9 269.32-11.5L269.32-11.5Q270.57-14.6 271.4-16.8 272.22-19 272.22-19.6L272.22-19.6Q272.22-20.3 271.75-20.58 271.27-20.85 270.17-20.85L270.17-20.85 268.32-20.85 268.12-21.15 268.37-22.7Q268.82-22.7 270.17-22.65 271.52-22.6 273.32-22.6L273.32-22.6 277.42-22.65 277.07-20.8Q276.07-20.7 275.47-19.98 274.87-19.25 273.97-17.05L273.97-17.05 266.97 0 264.27 0.85 259.77-13.9 259.47-13.9 253.97 0 251.22 0.85ZM288.07 0.6Q285.22 0.6 283.02-0.8 280.82-2.2 279.59-4.73 278.37-7.25 278.37-10.5L278.37-10.5Q278.37-14 279.89-16.93 281.42-19.85 284.07-21.53 286.72-23.2 289.97-23.2L289.97-23.2Q292.77-23.2 294.99-21.8 297.22-20.4 298.44-17.88 299.67-15.35 299.67-12.1L299.67-12.1Q299.67-8.6 298.14-5.68 296.62-2.75 293.97-1.07 291.32 0.6 288.07 0.6L288.07 0.6ZM289.47-1.85Q292.27-1.85 293.92-4.13 295.57-6.4 295.57-10.3L295.57-10.3Q295.57-13.25 294.67-15.58 293.77-17.9 292.14-19.2 290.52-20.5 288.47-20.5L288.47-20.5Q285.67-20.5 284.02-18.2 282.37-15.9 282.37-11.95L282.37-11.95Q282.37-9 283.27-6.7 284.17-4.4 285.77-3.13 287.37-1.85 289.47-1.85L289.47-1.85ZM304.41-1.8Q305.91-1.95 306.41-2.78 306.91-3.6 306.91-5.95L306.91-5.95 306.91-16.95Q306.91-18.6 306.46-19.3 306.01-20 305.01-20L305.01-20Q304.61-20 304.34-19.95 304.06-19.9 303.96-19.85L303.96-19.85 303.71-20.2 303.86-21.75Q305.76-22.1 307.89-22.6 310.01-23.1 310.61-23.25L310.61-23.25 310.96-22.95Q310.86-22.5 310.66-20.88 310.46-19.25 310.51-17.8L310.51-17.8 310.71-17.65Q312.21-20 314.24-21.5 316.26-23 317.76-23L317.76-23Q318.46-23 318.84-22.93 319.21-22.85 319.31-22.8L319.31-22.8 319.46-22.6Q319.36-21.9 319.04-19.63 318.71-17.35 318.66-15.45L318.66-15.45 316.71-15.3Q316.71-17.35 316.44-18.03 316.16-18.7 315.36-18.7L315.36-18.7Q314.26-18.7 313.01-17.78 311.76-16.85 310.71-15.3L310.71-15.3Q310.66-13.85 310.51-10.5 310.36-7.15 310.31-5.1L310.31-5.1Q310.31-3.4 310.81-2.8 311.31-2.2 312.71-2.2L312.71-2.2Q313.36-2.2 314.01-2.25 314.66-2.3 314.91-2.3L314.91-2.3 314.96-2.1 314.51 0.1Q314.01 0.1 312.51 0.05 311.01 0 309.41 0L309.41 0Q307.56 0 306.06 0.08 304.56 0.15 304.16 0.2L304.16 0.2 304.41-1.8ZM322.31-1.75Q323.61-1.95 324.16-2.48 324.71-3 324.84-3.85 324.96-4.7 324.96-6.75L324.96-6.75 324.96-31.3Q324.96-34 323.11-34L323.11-34Q322.76-34 322.36-33.93 321.96-33.85 321.86-33.8L321.86-33.8Q321.86-34.1 321.96-34.7L321.96-34.7 322.06-35.65Q324.21-35.95 326.51-36.45 328.81-36.95 329.46-37.1L329.46-37.1 329.76-36.45Q329.21-35.6 328.79-25.85 328.36-16.1 328.36-4.9L328.36-4.9Q328.36-3.35 328.76-2.73 329.16-2.1 330.16-2.1L330.16-2.1Q330.71-2.1 331.21-2.15 331.71-2.2 331.91-2.2L331.91-2.2 332.01-2 331.56 0.15Q331.11 0.1 329.81 0.05 328.51 0 327.01 0L327.01 0Q325.71 0 324.14 0.13 322.56 0.25 322.06 0.3L322.06 0.3 322.31-1.75ZM329.61-11.7L329.71-12.5 335.66-18.2Q336.36-18.85 336.61-19.23 336.86-19.6 336.86-19.95L336.86-19.95Q336.86-20.5 336.21-20.75 335.56-21 334.11-21L334.11-21 333.96-21.25 334.41-22.7Q334.96-22.7 336.44-22.65 337.91-22.6 339.46-22.6L339.46-22.6Q340.66-22.6 342.21-22.73 343.76-22.85 344.21-22.9L344.21-22.9 344.36-22.65 343.96-21.1Q341.91-20.5 339.84-18.8 337.76-17.1 334.86-14.2L334.86-14.2Q334.86-14.2 333.31-12.65L333.31-12.65 338.56-5.9Q340.26-3.7 341.66-2.75 343.06-1.8 344.61-1.8L344.61-1.8 344.76-1.55 344.46-0.1Q344.01 0.05 342.61 0.38 341.21 0.7 340.76 0.7L340.76 0.7Q340.01 0.7 339.01 0.2L339.01 0.2Q338.26-0.2 337.49-1.03 336.71-1.85 335.51-3.55L335.51-3.55 329.61-11.7ZM371.61-1.45Q373.11-1.85 373.76-2.63 374.41-3.4 374.41-4.7L374.41-4.7 374.61-14.6Q374.61-17.1 373.53-18.45 372.46-19.8 370.46-19.8L370.46-19.8Q368.86-19.8 367.21-18.98 365.56-18.15 364.31-17.2L364.31-17.2Q363.86-6.85 363.86-4.9L363.86-4.9Q363.86-3.35 364.26-2.73 364.66-2.1 365.66-2.1L365.66-2.1Q366.21-2.1 366.71-2.15 367.21-2.2 367.41-2.2L367.41-2.2 367.51-2 367.06 0.15Q366.61 0.1 365.31 0.05 364.01 0 362.51 0L362.51 0Q360.86 0 359.46 0.05 358.06 0.1 357.56 0.1L357.56 0.1 357.86-1.95Q359.31-2.1 359.88-2.7 360.46-3.3 360.46-4.7L360.46-4.7 360.46-16.9Q360.46-18.6 359.91-19.28 359.36-19.95 358.01-19.95L358.01-19.95 357.46-19.95 357.31-20.15 357.46-21.8Q359.61-22.15 361.73-22.63 363.86-23.1 364.46-23.25L364.46-23.25 364.76-22.85Q364.66-22.55 364.46-21.58 364.26-20.6 364.21-19.55L364.21-19.55 364.31-19.4Q369.91-23.2 371.66-23.2L371.66-23.2Q374.06-23.2 375.71-22.18 377.36-21.15 378.06-19.25L378.06-19.25Q379.86-20.55 382.11-21.88 384.36-23.2 385.61-23.2L385.61-23.2Q388.76-23.2 390.61-21.45 392.46-19.7 392.46-16.75L392.46-16.75Q392.46-16.25 392.16-12.15L392.16-12.15Q391.76-6.95 391.76-4.9L391.76-4.9Q391.76-3.35 392.16-2.73 392.56-2.1 393.56-2.1L393.56-2.1Q394.11-2.1 394.61-2.15 395.11-2.2 395.31-2.2L395.31-2.2 395.41-2 394.96 0.15Q394.51 0.1 393.21 0.05 391.91 0 390.41 0L390.41 0Q389.11 0 387.53 0.13 385.96 0.25 385.46 0.3L385.46 0.3 385.71-1.75Q387.16-2 387.76-2.65 388.36-3.3 388.36-4.7L388.36-4.7 388.56-14.6Q388.56-17.1 387.48-18.45 386.41-19.8 384.41-19.8L384.41-19.8Q381.81-19.8 378.36-17.3L378.36-17.3 377.81-4.9Q377.81-3.45 378.21-2.78 378.61-2.1 379.56-2.1L379.56-2.1Q380.11-2.1 380.61-2.15 381.11-2.2 381.31-2.2L381.31-2.2 381.41-2 381.01 0.15Q380.56 0.1 379.31 0.05 378.06 0 376.56 0L376.56 0Q375.26 0 373.58 0.25 371.91 0.5 371.41 0.6L371.41 0.6 371.61-1.45ZM415.56 0.6Q411.5 0.6 411.1-3.45L411.1-3.45 410.9-3.5Q409.1-1.7 407.63-0.65 406.15 0.4 405.4 0.4L405.4 0.4Q402.6 0.4 400.81-1.35 399-3.1 399-5.8L399-5.8Q399-7.25 399.73-8.35 400.45-9.45 401.65-9.8L401.65-9.8 411.15-12.4 411.2-14.6Q411.2-17.1 410.06-18.5 408.9-19.9 406.81-19.9L406.81-19.9Q405.4-19.9 403.85-19.25 402.31-18.6 400.81-17.4L400.81-17.4 400.56-17.55 399.95-19.7Q402.31-21.05 404.68-22.13 407.06-23.2 408.1-23.2L408.1-23.2Q411.35-23.2 413.2-21.5 415.06-19.8 415.06-16.75L415.06-16.75Q415.06-15.65 414.7-12.25L414.7-12.25Q414.15-6.75 414.15-5.25L414.15-5.25Q414.15-4.15 414.7-3.55 415.25-2.95 416.2-2.95L416.2-2.95Q417-2.95 417.85-3.33 418.7-3.7 419.2-4.2L419.2-4.2 419.9-3.4Q419.15-2.15 417.98-0.98 416.81 0.2 415.56 0.6L415.56 0.6ZM406.25-3Q407.2-3 408.48-3.68 409.75-4.35 410.81-5.4L410.81-5.4 411.06-10.5 404.25-8.45Q402.81-8 402.81-6.35L402.81-6.35Q402.81-4.9 403.78-3.95 404.75-3 406.25-3L406.25-3ZM423.2-1.8Q424.7-1.95 425.2-2.78 425.7-3.6 425.7-5.95L425.7-5.95 425.7-16.95Q425.7-18.6 425.25-19.3 424.8-20 423.8-20L423.8-20Q423.4-20 423.13-19.95 422.85-19.9 422.75-19.85L422.75-19.85 422.5-20.2 422.65-21.75Q424.55-22.1 426.68-22.6 428.8-23.1 429.4-23.25L429.4-23.25 429.75-22.95Q429.65-22.5 429.45-20.88 429.25-19.25 429.3-17.8L429.3-17.8 429.5-17.65Q431-20 433.03-21.5 435.05-23 436.55-23L436.55-23Q437.25-23 437.63-22.93 438-22.85 438.1-22.8L438.1-22.8 438.25-22.6Q438.15-21.9 437.83-19.63 437.5-17.35 437.45-15.45L437.45-15.45 435.5-15.3Q435.5-17.35 435.23-18.03 434.95-18.7 434.15-18.7L434.15-18.7Q433.05-18.7 431.8-17.78 430.55-16.85 429.5-15.3L429.5-15.3Q429.45-13.85 429.3-10.5 429.15-7.15 429.1-5.1L429.1-5.1Q429.1-3.4 429.6-2.8 430.1-2.2 431.5-2.2L431.5-2.2Q432.15-2.2 432.8-2.25 433.45-2.3 433.7-2.3L433.7-2.3 433.75-2.1 433.3 0.1Q432.8 0.1 431.3 0.05 429.8 0 428.2 0L428.2 0Q426.35 0 424.85 0.08 423.35 0.15 422.95 0.2L422.95 0.2 423.2-1.8ZM441.1-1.75Q442.4-1.95 442.95-2.48 443.5-3 443.63-3.85 443.75-4.7 443.75-6.75L443.75-6.75 443.75-31.3Q443.75-34 441.9-34L441.9-34Q441.55-34 441.15-33.93 440.75-33.85 440.65-33.8L440.65-33.8Q440.65-34.1 440.75-34.7L440.75-34.7 440.85-35.65Q443-35.95 445.3-36.45 447.6-36.95 448.25-37.1L448.25-37.1 448.55-36.45Q448-35.6 447.57-25.85 447.15-16.1 447.15-4.9L447.15-4.9Q447.15-3.35 447.55-2.73 447.95-2.1 448.95-2.1L448.95-2.1Q449.5-2.1 450-2.15 450.5-2.2 450.7-2.2L450.7-2.2 450.8-2 450.35 0.15Q449.9 0.1 448.6 0.05 447.3 0 445.8 0L445.8 0Q444.5 0 442.92 0.13 441.35 0.25 440.85 0.3L440.85 0.3 441.1-1.75ZM448.4-11.7L448.5-12.5 454.45-18.2Q455.15-18.85 455.4-19.23 455.65-19.6 455.65-19.95L455.65-19.95Q455.65-20.5 455-20.75 454.35-21 452.9-21L452.9-21 452.75-21.25 453.2-22.7Q453.75-22.7 455.22-22.65 456.7-22.6 458.25-22.6L458.25-22.6Q459.45-22.6 461-22.73 462.55-22.85 463-22.9L463-22.9 463.15-22.65 462.75-21.1Q460.7-20.5 458.63-18.8 456.55-17.1 453.65-14.2L453.65-14.2Q453.65-14.2 452.1-12.65L452.1-12.65 457.35-5.9Q459.05-3.7 460.45-2.75 461.85-1.8 463.4-1.8L463.4-1.8 463.55-1.55 463.25-0.1Q462.8 0.05 461.4 0.38 460 0.7 459.55 0.7L459.55 0.7Q458.8 0.7 457.8 0.2L457.8 0.2Q457.05-0.2 456.27-1.03 455.5-1.85 454.3-3.55L454.3-3.55 448.4-11.7ZM475.55 0.6Q472.45 0.6 470.05-0.78 467.65-2.15 466.35-4.67 465.05-7.2 465.05-10.45L465.05-10.45Q465.05-13.8 466.57-16.75 468.1-19.7 470.65-21.45 473.2-23.2 476.1-23.2L476.1-23.2Q479.75-23.2 481.65-21.35 483.55-19.5 483.55-15.95L483.55-15.95Q483.55-14.5 483.25-13.5L483.25-13.5 482.6-12.9 468.8-12.9Q468.75-8.05 470.72-5.43 472.7-2.8 476.25-2.8L476.25-2.8Q479.05-2.8 482.35-4.35L482.35-4.35 482.65-4.25 483.2-2.8Q481.4-1.5 479.22-0.45 477.05 0.6 475.55 0.6L475.55 0.6ZM469-14.75L478.05-15.2Q478.8-15.3 479.05-15.55 479.3-15.8 479.3-16.55L479.3-16.55Q479.3-18.55 478.22-19.6 477.15-20.65 475.15-20.65L475.15-20.65Q472.8-20.65 471.12-19.05 469.45-17.45 469-14.75L469-14.75ZM495.94 0.6Q492.54 0.6 491.14-0.78 489.75-2.15 489.75-5.45L489.75-5.45 489.75-17.75Q489.75-19.1 489.14-19.65 488.54-20.2 486.89-20.25L486.89-20.25 486.69-20.55 486.94-22.05Q488.39-22.75 489.77-23.78 491.14-24.8 492.02-25.58 492.89-26.35 493.14-26.6L493.14-26.6 494.14-26.2Q494.09-25.95 494-25 493.89-24.05 493.75-22.45L493.75-22.45 501.09-22.6 501.25-22.45 500.79-19.8 493.54-19.95Q493.19-14.45 493.19-7.45L493.19-7.45Q493.19-4.9 494.07-3.85 494.94-2.8 497.09-2.8L497.09-2.8Q497.84-2.8 498.59-3 499.34-3.2 499.84-3.43 500.34-3.65 500.5-3.7L500.5-3.7 501-2.4Q500.69-2.15 499.72-1.45 498.75-0.75 497.62-0.08 496.5 0.6 495.94 0.6L495.94 0.6ZM504.39 11.85L504.64 9.9Q505.74 9.75 506.27 9.45 506.79 9.15 506.99 8.45 507.19 7.75 507.19 6.3L507.19 6.3Q507.19 4.2 507.24 2.7L507.24 2.7 507.29-2 507.29-16.9Q507.29-18.6 506.74-19.28 506.19-19.95 504.84-19.95L504.84-19.95 504.29-19.95 504.14-20.15 504.29-21.8Q506.44-22.15 508.57-22.63 510.69-23.1 511.29-23.25L511.29-23.25 511.59-22.85Q511.54-22.6 511.37-21.78 511.19-20.95 511.09-20.15L511.09-20.15 511.29-19.8Q515.99-23.05 517.09-23.05L517.09-23.05Q519.94-23.05 522.14-21.73 524.34-20.4 525.54-18 526.74-15.6 526.74-12.5L526.74-12.5Q526.74-8.95 525.04-5.95 523.34-2.95 520.49-1.18 517.64 0.6 514.29 0.6L514.29 0.6Q513.19 0.6 512.12 0.53 511.04 0.45 510.64 0.4L510.64 0.4 510.69 5.55Q510.69 7.85 511.17 8.68 511.64 9.5 513.04 9.5L513.04 9.5 514.74 9.45 514.84 9.6 514.44 11.5 509.69 11.5Q507.89 11.5 506.37 11.65 504.84 11.8 504.39 11.85L504.39 11.85ZM515.69-2.15Q519.04-2.15 520.97-4.42 522.89-6.7 522.89-10.65L522.89-10.65Q522.89-13.15 522.02-15.2 521.14-17.25 519.62-18.45 518.09-19.65 516.29-19.65L516.29-19.65Q515.29-19.65 513.84-18.98 512.39-18.3 511.09-17.2L511.09-17.2Q510.69-10.65 510.69-3.1L510.69-3.1Q511.69-2.7 513.07-2.43 514.44-2.15 515.69-2.15L515.69-2.15ZM529.89 0.6L530.09-1.45Q531.49-1.85 532.06-2.45 532.64-3.05 532.76-3.9 532.89-4.75 532.89-6.75L532.89-6.75 532.89-31.3Q532.89-32.85 532.54-33.4 532.19-33.95 531.09-33.95L531.09-33.95Q530.84-33.95 529.94-33.85L529.94-33.85 529.79-33.95 529.99-35.65Q534.19-36.25 537.39-37.1L537.39-37.1 537.69-36.45Q537.14-35.6 536.71-25.75 536.29-15.9 536.29-4.9L536.29-4.9Q536.29-3.4 536.69-2.75 537.09-2.1 538.04-2.1L538.04-2.1 539.79-2.2 539.89-2 539.49 0.15Q536.19 0 535.04 0L535.04 0Q533.34 0 529.89 0.6L529.89 0.6ZM559.34 0.6Q555.29 0.6 554.89-3.45L554.89-3.45 554.69-3.5Q552.89-1.7 551.41-0.65 549.94 0.4 549.19 0.4L549.19 0.4Q546.39 0.4 544.59-1.35 542.79-3.1 542.79-5.8L542.79-5.8Q542.79-7.25 543.51-8.35 544.24-9.45 545.44-9.8L545.44-9.8 554.94-12.4 554.99-14.6Q554.99-17.1 553.84-18.5 552.69-19.9 550.59-19.9L550.59-19.9Q549.19-19.9 547.64-19.25 546.09-18.6 544.59-17.4L544.59-17.4 544.34-17.55 543.74-19.7Q546.09-21.05 548.46-22.13 550.84-23.2 551.89-23.2L551.89-23.2Q555.14-23.2 556.99-21.5 558.84-19.8 558.84-16.75L558.84-16.75Q558.84-15.65 558.49-12.25L558.49-12.25Q557.94-6.75 557.94-5.25L557.94-5.25Q557.94-4.15 558.49-3.55 559.04-2.95 559.99-2.95L559.99-2.95Q560.79-2.95 561.64-3.33 562.49-3.7 562.99-4.2L562.99-4.2 563.69-3.4Q562.94-2.15 561.76-0.98 560.59 0.2 559.34 0.6L559.34 0.6ZM550.04-3Q550.99-3 552.26-3.68 553.54-4.35 554.59-5.4L554.59-5.4 554.84-10.5 548.04-8.45Q546.59-8 546.59-6.35L546.59-6.35Q546.59-4.9 547.56-3.95 548.54-3 550.04-3L550.04-3ZM576.28 0.6Q571.53 0.6 568.68-2.4 565.83-5.4 565.83-10.45L565.83-10.45Q565.83-14 567.36-16.93 568.88-19.85 571.51-21.53 574.13-23.2 577.38-23.2L577.38-23.2Q578.78-23.2 580.08-23 581.38-22.8 582.21-22.58 583.03-22.35 583.23-22.25L583.23-22.25 583.38-21.9Q583.33-21.65 583.11-20.73 582.88-19.8 582.63-18.28 582.38-16.75 582.33-15L582.33-15 580.28-14.85 580.28-16.4Q580.28-18.25 579.16-19.38 578.03-20.5 576.18-20.5L576.18-20.5Q573.13-20.5 571.48-18.32 569.83-16.15 569.83-12.15L569.83-12.15Q569.83-7.8 571.66-5.28 573.48-2.75 576.63-2.75L576.63-2.75Q577.88-2.75 579.13-3.13 580.38-3.5 581.23-3.88 582.08-4.25 582.28-4.4L582.28-4.4 582.58-4.3 583.13-2.75Q582.78-2.5 581.61-1.7 580.43-0.9 578.91-0.15 577.38 0.6 576.28 0.6L576.28 0.6ZM596.78 0.6Q593.68 0.6 591.28-0.78 588.88-2.15 587.58-4.67 586.28-7.2 586.28-10.45L586.28-10.45Q586.28-13.8 587.81-16.75 589.33-19.7 591.88-21.45 594.43-23.2 597.33-23.2L597.33-23.2Q600.98-23.2 602.88-21.35 604.78-19.5 604.78-15.95L604.78-15.95Q604.78-14.5 604.48-13.5L604.48-13.5 603.83-12.9 590.03-12.9Q589.98-8.05 591.96-5.43 593.93-2.8 597.48-2.8L597.48-2.8Q600.28-2.8 603.58-4.35L603.58-4.35 603.88-4.25 604.43-2.8Q602.63-1.5 600.46-0.45 598.28 0.6 596.78 0.6L596.78 0.6ZM590.23-14.75L599.28-15.2Q600.03-15.3 600.28-15.55 600.53-15.8 600.53-16.55L600.53-16.55Q600.53-18.55 599.46-19.6 598.38-20.65 596.38-20.65L596.38-20.65Q594.03-20.65 592.36-19.05 590.68-17.45 590.23-14.75L590.23-14.75Z" opacity="1" transform="matrix(1,0,0,1,0,0)" fill="#ffffff" class="slogan-text-1" data-fill-palette-color="quaternary" id="text-1"></path></svg></g></svg></g></svg></g></svg></g><g transform="matrix(1,0,0,1,40.713262274387006,0)"><svg viewBox="0 0 131.7319166783831 102.51352931297062" height="102.51352931297062" width="131.7319166783831"><g><svg xmlns="http://www.w3.org/2000/svg" xmlns:xlink="http://www.w3.org/1999/xlink" version="1.1" x="8" y="0" viewBox="10.487 15 79.02600000000001 70" style="enable-background:new 0 0 100 100;" xml:space="preserve" height="102.51352931297062" width="115.7319166783831" class="icon-icon-0" data-fill-palette-color="quaternary" id="icon-0"><g fill="#ffffff" data-fill-palette-color="quaternary"><polygon points="71,33 83.513,33 83.513,55.666 80.513,55.666 68.513,55.666 68.513,51.333 62.513,51.333 62.513,55.666    62.513,61.666 62.513,66 68.513,66 68.513,61.666 80.513,61.666 80.513,79 19.487,79 19.487,61.666 25.487,61.666 25.487,55.666    19.487,55.666 16.487,55.666 16.487,33 41,33 41,21 59,21 59,27 47,27 47,33 65,33 65,15 35,15 35,27 10.487,27 10.487,55.666    10.487,61.666 13.487,61.666 13.487,85 86.513,85 86.513,61.666 89.513,61.666 89.513,55.666 89.513,27 71,27  " fill="#ffffff" data-fill-palette-color="quaternary"></polygon><polygon points="31.487,51.333 31.487,55.666 31.487,61.666 31.487,66 37.487,66 37.487,61.666 56.513,61.666 56.513,55.666    37.487,55.666 37.487,51.333  " fill="#ffffff" data-fill-palette-color="quaternary"></polygon></g></svg></g></svg></g><g><rect width="40.713262274387006" height="4.743208744830552" y="96.77032056814006" x="172.4451789527701" fill="#f4806b" data-fill-palette-color="accent"></rect><rect width="40.713262274387006" height="4.743208744830552" y="96.77032056814006" x="0" fill="#f4806b" data-fill-palette-color="accent"></rect><rect width="40.713262274387006" height="4.743208744830552" y="87.28390307847896" x="172.4451789527701" fill="#f4806b" data-fill-palette-color="accent"></rect><rect width="40.713262274387006" height="4.743208744830552" y="87.28390307847896" x="0" fill="#f4806b" data-fill-palette-color="accent"></rect></g></svg></g></svg></g></svg></g><defs></defs></svg><rect width="342.85155851775386" height="342.85155851775386" fill="none" stroke="none" visibility="hidden"></rect></g></svg></g></svg>